<svg width="32" height="32" viewBox="0 0 32 32" fill="none" xmlns="http://www.w3.org/2000/svg">
  <rect width="32" height="32" rx="6" fill="#4F46E5"/>
  <path d="M16 8C13.2386 8 11 10.2386 11 13V15H10C8.89543 15 8 15.8954 8 17V23C8 24.1046 8.89543 25 10 25H22C23.1046 25 24 24.1046 24 23V17C24 15.8954 23.1046 15 22 15H21V13C21 10.2386 18.7614 8 16 8ZM13 13C13 11.3431 14.3431 10 16 10C17.6569 10 19 11.3431 19 13V15H13V13Z" fill="white"/>
  <circle cx="16" cy="20" r="1.5" fill="#4F46E5"/>
  <path d="M16 17.5V19" stroke="#4F46E5" stroke-width="1.5" stroke-linecap="round"/>
</svg>